# xmcd CD database file
#
# Track frame offsets:
#	150
#	12970
#	30088
#	44959
#	59038
#	72675
#	85654
#	95860
#	106713
#	122809
#	138156
#	153910
#	170208
#	191844
#
# Disc length: 2683 seconds
#
# Revision: 1
# Processed by: cddbd v1.5.2PL0 Copyright (c) Steve Scherf et al.
# Submitted via: CDex 1.79
#
DISCID=c80a790e
DTITLE=Erin Hay - Honky Tonk Heaven
DYEAR=2004
DGENRE=Country
TTITLE0=You're A Lesson I've Already Learned
TTITLE1=There Goes My Everything
TTITLE2=Bad Luck
TTITLE3=Honky Tonk Heaven
TTITLE4=Poison Of Your Kiss
TTITLE5=I Got The Blues Again
TTITLE6=Alone With You
TTITLE7=Honky Tonk Girl
TTITLE8=Autumn's Not That Cold
TTITLE9=My Hands Are Full
TTITLE10=If The Phone Don't Ring
TTITLE11=Mirror, Mirror (On The Wall)
TTITLE12=Cheater's Moon
TTITLE13=Your Good Girl's Gonna Go Bad
EXTD=YEAR: 2004
EXTT0=
EXTT1=
EXTT2=
EXTT3=
EXTT4=
EXTT5=
EXTT6=
EXTT7=
EXTT8=
EXTT9=
EXTT10=
EXTT11=
EXTT12=
EXTT13=
PLAYORDER=
